<svg xmlns="http://www.w3.org/2000/svg" width="512" height="512" viewBox="0 0 210.4 210.4"><style>.a{fill:#dedede;}</style><g xmlns="http://www.w3.org/2000/svg"><path d="M105.2 0C66.5 0 35.1 31.5 35.1 70.1v70.2c0 38.7 31.5 70.1 70.1 70.1 38.7 0 70.1-31.4 70.1-70.1v-70.2C175.3 31.5 143.9 0 105.2 0zM167.6 140.3c0 34.4-28 62.3-62.3 62.3 -34.4 0-62.3-27.9-62.3-62.3v-70.2c0-34.4 28-62.3 62.3-62.3 34.4 0 62.3 28 62.3 62.3V140.3z" data-original="#000000" class="a"/><path d="M105.2 23.4c-2.2 0-3.9 1.7-3.9 3.9v35.3c0 2.2 1.7 3.9 3.9 3.9 2.2 0 3.9-1.7 3.9-3.9V27.3C109.1 25.1 107.4 23.4 105.2 23.4z" data-original="#000000" class="a"/></g></svg>